<svg width="20" height="20" viewBox="0 0 20 20" fill="none" xmlns="http://www.w3.org/2000/svg">
<path fill-rule="evenodd" clip-rule="evenodd" d="M7.91401 1.85189C8.48092 1.73002 9.05915 1.66856 9.63901 1.66855C11.9572 1.65722 14.1666 2.65102 15.6962 4.39311C17.2257 6.1352 17.9252 8.45461 17.614 10.7519C17.114 14.5852 13.3307 17.6852 9.46401 17.6852H3.91401C3.44224 17.6854 3.00503 17.4378 2.76255 17.0331C2.52008 16.6284 2.50798 16.1261 2.73068 15.7102L2.95568 15.2769C3.17961 14.8595 3.16372 14.3544 2.91401 13.9519C1.51543 11.7532 1.27531 9.01118 2.27046 6.6029C3.26562 4.19462 5.37134 2.42193 7.91401 1.85189ZM9.39734 16.4269C12.7945 16.3733 15.6837 13.9337 16.3057 10.5936C16.5882 8.65778 16.0063 6.6956 14.714 5.22689C13.434 3.76212 11.5843 2.92078 9.63901 2.91855C9.14634 2.91949 8.655 2.96974 8.17234 3.06855C6.02663 3.54597 4.24716 5.03711 3.4017 7.0662C2.55625 9.0953 2.75045 11.4088 3.92234 13.2686C4.42092 14.0518 4.456 15.0437 4.01401 15.8602L3.78901 16.2852C3.77069 16.313 3.77069 16.3491 3.78901 16.3769C3.82234 16.4269 3.87234 16.4269 3.87234 16.4269H9.39734Z" fill="#82879A" stroke="#82879A" stroke-width="0.571429"/>
<path d="M12.9183 10H12.9167V10.0016L12.9183 10.0017L12.9183 10Z" stroke="#82879A" stroke-width="1.66667" stroke-linecap="round" stroke-linejoin="round"/>
<path d="M9.585 10H9.58333V10.0016L9.58496 10.0017L9.585 10Z" stroke="#82879A" stroke-width="1.66667" stroke-linecap="round" stroke-linejoin="round"/>
<path d="M6.25167 10H6.25V10.0016L6.25163 10.0017L6.25167 10Z" stroke="#82879A" stroke-width="1.66667" stroke-linecap="round" stroke-linejoin="round"/>
</svg>
