<svg width="40" height="36" viewBox="0 0 40 36" fill="none" xmlns="http://www.w3.org/2000/svg">
<path d="M1.8335 12C1.8335 8.68629 4.51979 6 7.8335 6H31.8335C35.1472 6 37.8335 8.68629 37.8335 12V28C37.8335 31.3137 35.1472 34 31.8335 34H7.8335C4.51979 34 1.8335 31.3137 1.8335 28V12Z" fill="white"/>
<path fill-rule="evenodd" clip-rule="evenodd" d="M0 12C0 7.58172 3.58172 4 8 4H32C36.4183 4 40 7.58172 40 12V28C40 32.4183 36.4183 36 32 36H8C3.58172 36 0 32.4183 0 28V12ZM8 8C5.79086 8 4 9.79086 4 12V28C4 30.2091 5.79086 32 8 32H32C34.2091 32 36 30.2091 36 28V12C36 9.79086 34.2091 8 32 8H8Z" fill="white"/>
<path d="M11.8335 20C11.8335 24.4183 15.4152 28 19.8335 28C24.2518 28 27.8335 24.4183 27.8335 20C27.8335 15.5817 24.2518 12 19.8335 12C15.4152 12 11.8335 15.5817 11.8335 20Z" fill="#A1A6B5"/>
<path d="M15.8335 20C15.8335 22.2091 17.6244 24 19.8335 24C22.0426 24 23.8335 22.2091 23.8335 20C23.8335 17.7909 22.0426 16 19.8335 16C17.6244 16 15.8335 17.7909 15.8335 20Z" fill="white"/>
<path d="M12.7279 2.21114C13.4055 0.856009 14.7905 0 16.3056 0H23.3614C24.8764 0 26.2615 0.856009 26.9391 2.21115L27.8335 4H11.8335L12.7279 2.21114Z" fill="white"/>
<path d="M33.8335 12C33.8335 13.1046 32.9381 14 31.8335 14C30.7289 14 29.8335 13.1046 29.8335 12C29.8335 10.8954 30.7289 10 31.8335 10C32.9381 10 33.8335 10.8954 33.8335 12Z" fill="#A1A6B5"/>
</svg>
