<svg width="24" height="24" viewBox="0 0 24 24" fill="none" xmlns="http://www.w3.org/2000/svg">
<path d="M4 7H20M16 7H8M9 3H15M18 7V17.8C18 18.9201 18.0002 19.4802 17.7822 19.908C17.5905 20.2844 17.2841 20.5902 16.9078 20.782C16.48 21 15.9203 21 13.8002 21H9.2002C8.08009 21 7.51962 21 7.0918 20.782C6.71547 20.5902 6.40973 20.2844 6.21799 19.908C6 19.4802 6 18.9201 6 17.8V7H18Z" stroke="#82879A" stroke-width="2" stroke-linecap="round" stroke-linejoin="round"/>
<path d="M14 12V16M10 12L10 16" stroke="#82879A" stroke-width="2" stroke-linecap="round" stroke-linejoin="round"/>
</svg>
