<svg width="24" height="24" viewBox="0 0 24 24" fill="none" xmlns="http://www.w3.org/2000/svg">
<path d="M3 18V12C3 9.61305 3.94821 7.32387 5.63604 5.63604C7.32387 3.94821 9.61305 3 12 3C14.3869 3 16.6761 3.94821 18.364 5.63604C20.0518 7.32387 21 9.61305 21 12V18" stroke="#24BF40" stroke-width="2" stroke-linecap="round" stroke-linejoin="round"/>
<path d="M21 19C21 19.5304 20.7893 20.0391 20.4142 20.4142C20.0391 20.7893 19.5304 21 19 21H18C17.4696 21 16.9609 20.7893 16.5858 20.4142C16.2107 20.0391 16 19.5304 16 19V16C16 15.4696 16.2107 14.9609 16.5858 14.5858C16.9609 14.2107 17.4696 14 18 14H21V19ZM3 19C3 19.5304 3.21071 20.0391 3.58579 20.4142C3.96086 20.7893 4.46957 21 5 21H6C6.53043 21 7.03914 20.7893 7.41421 20.4142C7.78929 20.0391 8 19.5304 8 19V16C8 15.4696 7.78929 14.9609 7.41421 14.5858C7.03914 14.2107 6.53043 14 6 14H3V19Z" fill="#24BF40"/>
<path d="M11.6593 8.20736C11.8023 7.93088 12.1977 7.93088 12.3407 8.20736L13.1203 9.7152C13.1568 9.78575 13.2142 9.84324 13.2848 9.87972L14.7926 10.6593C15.0691 10.8023 15.0691 11.1977 14.7926 11.3407L13.2848 12.1203C13.2142 12.1568 13.1568 12.2142 13.1203 12.2848L12.3407 13.7926C12.1977 14.0691 11.8023 14.0691 11.6593 13.7926L10.8797 12.2848C10.8432 12.2142 10.7858 12.1568 10.7152 12.1203L9.20736 11.3407C8.93088 11.1977 8.93088 10.8023 9.20736 10.6593L10.7152 9.87972C10.7858 9.84324 10.8432 9.78575 10.8797 9.7152L11.6593 8.20736Z" fill="#24BF40"/>
</svg>
