<svg width="24" height="24" viewBox="0 0 24 24" fill="none" xmlns="http://www.w3.org/2000/svg">
<path d="M17 2C19.7614 2 22 4.23858 22 7V17C22 19.7614 19.7614 22 17 22H7C4.23858 22 2 19.7614 2 17V7C2 4.23858 4.23858 2 7 2H17ZM7 4C5.34315 4 4 5.34315 4 7V17C4 18.6569 5.34315 20 7 20H17C18.6569 20 20 18.6569 20 17V7C20 5.34315 18.6569 4 17 4H7ZM8.36719 10.7256C8.75993 10.4053 9.33896 10.4279 9.70508 10.7939L14.0713 15.1602L15.873 13.7197C16.2709 13.4014 16.8448 13.4337 17.2051 13.7939L19.2051 15.7939L19.2734 15.8701C19.5938 16.2629 19.5712 16.8419 19.2051 17.208C18.8389 17.5738 18.2599 17.5966 17.8672 17.2764L17.791 17.208L16.4238 15.8408L14.623 17.2822C14.2252 17.6003 13.6512 17.5682 13.291 17.208L8.99805 12.915L6.20508 15.708C5.81453 16.0982 5.18144 16.0984 4.79102 15.708C4.40069 15.3176 4.40082 14.6845 4.79102 14.2939L8.29102 10.7939L8.36719 10.7256ZM15.002 6.52051C15.8192 6.52072 16.4824 7.18373 16.4824 8.00098C16.4823 8.81814 15.8191 9.48123 15.002 9.48145C14.1846 9.48145 13.5216 8.81827 13.5215 8.00098C13.5215 7.1836 14.1846 6.52051 15.002 6.52051Z" fill="#82879A"/>
</svg>
